<?xml version="1.0" encoding="utf-8"?>
<svg viewBox="0 0 250 125" xmlns="http://www.w3.org/2000/svg">
  <defs/>
  <g transform="matrix(1, 0, 0, 1, -111.46675872802734, -62.500362396240234)">
    <title>logo</title>
    <path d="M 134.98 148.3 L 128.26 148.3 L 128.26 99.3 L 134.98 99.3 Q 145.06 99.3 152.06 106.72 Q 159.06 114.14 159.06 123.8 Q 159.06 133.46 152.06 140.88 Q 145.06 148.3 134.98 148.3 Z M 134.98 146.2 Q 144.15 146.2 150.56 139.44 Q 156.96 132.69 156.96 123.8 Q 156.96 114.91 150.56 108.15 Q 144.15 101.4 134.98 101.4 L 130.36 101.4 L 130.36 146.2 Z M 202.31 127.23 Q 202.31 140.88 196.43 145.85 L 195.1 144.24 Q 200.21 139.9 200.21 127.23 L 200.21 120.37 Q 200.21 114.56 199.23 110.6 Q 198.25 106.65 196.29 104.55 Q 194.33 102.45 191.88 101.57 Q 189.43 100.7 186 100.7 Q 182.57 100.7 180.12 101.57 Q 177.67 102.45 175.71 104.55 Q 173.75 106.65 172.77 110.6 Q 171.79 114.56 171.79 120.37 L 171.79 127.23 Q 171.79 133.04 172.77 136.99 Q 173.75 140.95 175.71 143.05 Q 177.67 145.15 180.12 146.02 Q 182.57 146.9 186 146.9 Q 186 154.67 188.49 157.43 Q 190.97 160.2 196.22 160.2 L 196.22 162.3 Q 190.55 162.3 187.47 159.5 Q 184.39 156.7 183.97 148.93 Q 176.48 148.3 173.09 143.01 Q 169.69 137.73 169.69 127.23 L 169.69 120.37 Q 169.69 109.17 173.54 103.88 Q 177.39 98.6 186 98.6 Q 194.61 98.6 198.46 103.88 Q 202.31 109.17 202.31 120.37 Z M 217.41 146.2 L 243.17 146.2 L 228.33 105.39 L 212.72 148.3 L 210.48 148.3 L 228.33 99.23 L 246.18 148.3 L 217.41 148.3 Z" style="fill: rgb(102, 102, 102); text-transform: uppercase;"/>
    <path d="M 622.43 227.06 L 622.43 227.21 Q 622.43 227.9 622.6 228.62 Q 622.76 229.33 623.12 229.91 Q 623.5 230.5 624.09 230.87 Q 624.69 231.25 625.55 231.25 Q 626.26 231.25 626.97 230.91 Q 627.69 230.57 628.1 229.92 L 628.1 231.1 L 628.5 231.1 L 628.5 219.85 L 628.1 219.85 L 628.1 224.54 Q 627.71 223.85 627.02 223.44 Q 626.34 223.03 625.56 223.03 Q 624.66 223.03 624.06 223.42 Q 623.45 223.8 623.09 224.42 Q 622.76 224.97 622.59 225.68 Q 622.43 226.38 622.43 227.06 Z M 622.84 227.21 L 622.84 227.06 Q 622.84 226.47 622.97 225.83 Q 623.1 225.2 623.4 224.67 Q 623.72 224.12 624.24 223.78 Q 624.76 223.43 625.56 223.43 Q 626.41 223.43 627.12 223.94 Q 627.83 224.46 628.1 225.32 L 628.1 229.24 Q 627.8 230.01 627.06 230.43 Q 626.32 230.85 625.54 230.85 Q 624.75 230.85 624.24 230.5 Q 623.72 230.15 623.4 229.62 Q 623.11 229.08 622.97 228.45 Q 622.84 227.82 622.84 227.21 Z M 630.7 223.18 L 630.7 223.57 L 633.61 223.57 L 633.61 230.71 L 630.7 230.71 L 630.7 231.1 L 636.82 231.1 L 636.82 230.71 L 634.01 230.71 L 634.01 223.18 Z M 633.27 220.93 Q 633.27 221.12 633.38 221.28 Q 633.49 221.44 633.78 221.44 Q 634.08 221.44 634.19 221.28 Q 634.31 221.12 634.31 220.92 Q 634.31 220.82 634.28 220.72 Q 634.25 220.62 634.2 220.54 Q 634.13 220.47 634.03 220.42 Q 633.93 220.38 633.78 220.38 Q 633.63 220.38 633.53 220.42 Q 633.44 220.47 633.38 220.54 Q 633.32 220.62 633.29 220.72 Q 633.27 220.82 633.27 220.93 Z M 642.38 231.1 L 642.84 231.1 L 642.81 223.58 L 646.07 223.58 L 646.07 223.18 L 642.81 223.18 L 642.81 222.48 Q 642.81 221.8 643.04 221.31 Q 643.27 220.82 643.64 220.55 Q 644.02 220.29 644.48 220.19 Q 644.94 220.1 645.51 220.1 Q 645.84 220.1 646.16 220.12 Q 646.48 220.14 646.8 220.21 L 646.86 219.82 Q 646.67 219.78 646.48 219.76 Q 646.29 219.73 646.1 219.72 Q 645.95 219.71 645.8 219.7 Q 645.65 219.7 645.5 219.7 Q 644.93 219.7 644.38 219.81 Q 643.83 219.93 643.4 220.23 Q 642.97 220.54 642.69 221.08 Q 642.42 221.62 642.41 222.48 L 642.4 223.18 L 640.26 223.18 L 640.26 223.58 L 642.4 223.58 Z M 650.19 231.1 L 650.65 231.1 L 650.62 223.58 L 653.88 223.58 L 653.88 223.18 L 650.62 223.18 L 650.62 222.48 Q 650.62 221.8 650.85 221.31 Q 651.09 220.82 651.45 220.55 Q 651.83 220.29 652.29 220.19 Q 652.75 220.1 653.33 220.1 Q 653.66 220.1 653.97 220.12 Q 654.29 220.14 654.62 220.21 L 654.67 219.82 Q 654.48 219.78 654.29 219.76 Q 654.1 219.73 653.91 219.72 Q 653.77 219.71 653.62 219.7 Q 653.47 219.7 653.31 219.7 Q 652.74 219.7 652.19 219.81 Q 651.64 219.93 651.21 220.23 Q 650.78 220.54 650.51 221.08 Q 650.24 221.62 650.22 222.48 L 650.21 223.18 L 648.07 223.18 L 648.07 223.58 L 650.21 223.58 Z M 658.05 223.18 L 658.05 223.57 L 660.95 223.57 L 660.95 230.71 L 658.05 230.71 L 658.05 231.1 L 664.16 231.1 L 664.16 230.71 L 661.35 230.71 L 661.35 223.18 Z M 660.62 220.93 Q 660.62 221.12 660.72 221.28 Q 660.83 221.44 661.13 221.44 Q 661.42 221.44 661.54 221.28 Q 661.65 221.12 661.65 220.92 Q 661.65 220.82 661.62 220.72 Q 661.6 220.62 661.54 220.54 Q 661.47 220.47 661.38 220.42 Q 661.28 220.38 661.13 220.38 Q 660.98 220.38 660.88 220.42 Q 660.78 220.47 660.72 220.54 Q 660.66 220.62 660.64 220.72 Q 660.62 220.82 660.62 220.93 Z M 670.68 230.85 Q 669.91 230.85 669.37 230.55 Q 668.82 230.25 668.47 229.75 Q 668.11 229.25 667.94 228.61 Q 667.77 227.98 667.77 227.3 L 667.77 226.99 Q 667.77 226.32 667.94 225.68 Q 668.11 225.04 668.47 224.53 Q 668.82 224.04 669.36 223.73 Q 669.91 223.43 670.66 223.43 Q 671.2 223.43 671.65 223.6 Q 672.11 223.77 672.46 224.07 Q 672.81 224.39 673.02 224.82 Q 673.23 225.26 673.28 225.79 L 673.67 225.79 Q 673.62 225.17 673.38 224.66 Q 673.14 224.15 672.74 223.79 Q 672.35 223.43 671.81 223.23 Q 671.28 223.03 670.66 223.03 Q 669.83 223.03 669.21 223.37 Q 668.6 223.71 668.19 224.26 Q 667.78 224.81 667.58 225.53 Q 667.38 226.24 667.37 226.99 L 667.37 227.3 Q 667.38 228.05 667.58 228.76 Q 667.78 229.47 668.19 230.02 Q 668.6 230.58 669.22 230.91 Q 669.84 231.25 670.68 231.25 Q 671.25 231.25 671.78 231.07 Q 672.3 230.9 672.7 230.57 Q 673.1 230.24 673.36 229.77 Q 673.61 229.29 673.67 228.7 L 673.28 228.7 Q 673.22 229.22 673 229.62 Q 672.78 230.03 672.43 230.3 Q 672.08 230.58 671.63 230.72 Q 671.18 230.85 670.68 230.85 Z M 680.93 231.1 L 681.34 231.1 L 681.34 223.18 L 680.93 223.18 L 680.94 228.67 Q 680.84 229.18 680.6 229.58 Q 680.36 229.99 680 230.27 Q 679.64 230.55 679.16 230.7 Q 678.69 230.85 678.11 230.85 Q 677.52 230.85 677.1 230.65 Q 676.67 230.44 676.4 230.09 Q 676.12 229.73 675.99 229.25 Q 675.86 228.77 675.85 228.23 L 675.85 223.18 L 675.46 223.18 L 675.46 228.21 Q 675.46 228.86 675.62 229.41 Q 675.78 229.97 676.11 230.37 Q 676.44 230.78 676.94 231.02 Q 677.44 231.25 678.13 231.25 Q 679.15 231.25 679.85 230.84 Q 680.56 230.42 680.94 229.69 Z M 685.39 219.85 L 685.39 220.25 L 688.33 220.25 L 688.33 230.71 L 685.39 230.71 L 685.39 231.1 L 691.51 231.1 L 691.51 230.71 L 688.72 230.71 L 688.72 219.85 Z M 695.65 221.04 L 695.22 221.04 L 695.22 223.18 L 692.89 223.18 L 692.89 223.58 L 695.22 223.58 L 695.22 229.21 Q 695.24 229.78 695.42 230.17 Q 695.6 230.55 695.93 230.8 Q 696.25 231.04 696.69 231.14 Q 697.13 231.25 697.66 231.25 Q 697.86 231.25 698.06 231.25 Q 698.26 231.24 698.45 231.22 Q 698.56 231.21 698.66 231.2 Q 698.76 231.18 698.86 231.16 L 698.78 230.79 Q 698.69 230.8 698.59 230.81 Q 698.48 230.82 698.39 230.83 Q 698.2 230.84 698.01 230.85 Q 697.82 230.85 697.62 230.85 Q 697.19 230.85 696.84 230.77 Q 696.48 230.68 696.22 230.48 Q 695.96 230.29 695.81 229.98 Q 695.66 229.67 695.64 229.21 L 695.64 223.58 L 698.5 223.58 L 698.5 223.18 L 695.64 223.18 Z" transform="matrix(1, 0, 0, 1, -350.556, -112.211327)" style="fill: rgb(102, 102, 102);"/>
    <path transform="matrix(1, 0, 0, 1, -350.556, -112.211327)" style="fill: rgb(102, 102, 102);"/>
    <path d="M 622.44 239.06 L 622.44 239.21 Q 622.44 239.92 622.61 240.66 Q 622.79 241.4 623.17 241.97 Q 623.55 242.53 624.13 242.89 Q 624.71 243.25 625.56 243.25 Q 625.91 243.25 626.27 243.16 Q 626.64 243.07 626.98 242.91 Q 627.31 242.75 627.61 242.5 Q 627.9 242.26 628.11 241.95 L 628.11 246.15 L 628.51 246.15 L 628.51 235.18 L 628.11 235.18 L 628.11 236.5 Q 627.91 236.16 627.63 235.89 Q 627.35 235.62 627.02 235.43 Q 626.69 235.24 626.32 235.14 Q 625.95 235.03 625.57 235.03 Q 624.71 235.03 624.11 235.38 Q 623.5 235.72 623.16 236.31 Q 622.76 236.97 622.6 237.66 Q 622.44 238.35 622.44 239.06 Z M 622.85 239.21 L 622.85 239.06 Q 622.85 238.44 622.97 237.79 Q 623.1 237.15 623.47 236.58 Q 623.79 236.08 624.3 235.75 Q 624.8 235.43 625.56 235.43 Q 625.98 235.43 626.38 235.57 Q 626.78 235.71 627.12 235.96 Q 627.45 236.2 627.71 236.55 Q 627.97 236.89 628.11 237.31 L 628.11 241.24 Q 627.96 241.62 627.68 241.93 Q 627.41 242.23 627.06 242.44 Q 626.72 242.64 626.33 242.75 Q 625.94 242.85 625.55 242.85 Q 624.77 242.85 624.26 242.51 Q 623.75 242.17 623.45 241.68 Q 623.12 241.14 622.98 240.49 Q 622.85 239.83 622.85 239.21 Z M 636.01 243.1 L 636.42 243.1 L 636.42 235.18 L 636.01 235.18 L 636.02 240.67 Q 635.92 241.18 635.68 241.58 Q 635.44 241.99 635.08 242.27 Q 634.72 242.55 634.24 242.7 Q 633.76 242.85 633.19 242.85 Q 632.6 242.85 632.17 242.65 Q 631.75 242.44 631.48 242.09 Q 631.2 241.73 631.07 241.25 Q 630.94 240.77 630.93 240.23 L 630.93 235.18 L 630.53 235.18 L 630.53 240.21 Q 630.54 240.86 630.7 241.41 Q 630.86 241.97 631.19 242.37 Q 631.51 242.78 632.02 243.02 Q 632.52 243.25 633.21 243.25 Q 634.22 243.25 634.93 242.84 Q 635.64 242.42 636.02 241.69 Z M 643.54 243.25 Q 644.36 243.25 645.06 242.94 Q 645.77 242.63 646.28 241.97 L 645.99 241.77 Q 645.51 242.34 644.9 242.61 Q 644.28 242.87 643.54 242.86 Q 642.81 242.85 642.22 242.56 Q 641.63 242.26 641.21 241.76 Q 640.79 241.27 640.56 240.63 Q 640.32 239.99 640.31 239.31 L 640.31 238.88 L 646.52 238.88 L 646.52 238.42 Q 646.51 237.74 646.29 237.12 Q 646.07 236.5 645.67 236.04 Q 645.26 235.57 644.68 235.3 Q 644.1 235.03 643.38 235.03 Q 642.58 235.03 641.94 235.37 Q 641.3 235.71 640.86 236.27 Q 640.41 236.83 640.17 237.54 Q 639.93 238.25 639.92 238.99 L 639.92 239.31 Q 639.93 240.08 640.19 240.79 Q 640.45 241.5 640.93 242.05 Q 641.4 242.6 642.06 242.92 Q 642.72 243.25 643.54 243.25 Z M 643.38 235.43 Q 643.99 235.43 644.5 235.67 Q 645 235.91 645.36 236.32 Q 645.72 236.73 645.92 237.27 Q 646.12 237.8 646.12 238.39 L 646.12 238.48 L 640.35 238.48 Q 640.42 237.89 640.66 237.34 Q 640.9 236.78 641.29 236.36 Q 641.67 235.93 642.2 235.68 Q 642.72 235.43 643.38 235.43 Z M 653.88 241.16 Q 653.88 241.54 653.7 241.82 Q 653.53 242.1 653.23 242.31 Q 652.79 242.6 652.27 242.73 Q 651.75 242.85 651.25 242.85 Q 650.8 242.85 650.32 242.77 Q 649.85 242.69 649.45 242.49 Q 649.05 242.29 648.77 241.95 Q 648.49 241.61 648.43 241.09 L 648.02 241.09 Q 648.07 241.68 648.36 242.09 Q 648.65 242.5 649.12 242.75 Q 649.57 243 650.14 243.13 Q 650.7 243.25 651.25 243.25 Q 651.79 243.25 652.4 243.11 Q 653 242.97 653.49 242.64 Q 653.81 242.41 654.04 242.04 Q 654.27 241.67 654.27 241.17 Q 654.27 240.58 653.99 240.18 Q 653.71 239.79 653.28 239.53 Q 652.84 239.27 652.33 239.12 Q 651.81 238.97 651.34 238.86 Q 650.95 238.78 650.46 238.66 Q 649.96 238.53 649.56 238.31 Q 649.17 238.12 648.94 237.79 Q 648.7 237.47 648.7 237.02 Q 648.7 236.56 648.96 236.25 Q 649.21 235.95 649.58 235.77 Q 649.96 235.58 650.39 235.51 Q 650.81 235.43 651.18 235.43 Q 651.61 235.43 652.08 235.53 Q 652.54 235.63 652.94 235.85 Q 653.33 236.08 653.58 236.44 Q 653.84 236.79 653.85 237.3 L 654.26 237.3 Q 654.22 236.68 653.94 236.25 Q 653.66 235.82 653.24 235.55 Q 652.81 235.28 652.27 235.16 Q 651.74 235.03 651.18 235.03 Q 650.73 235.03 650.22 235.14 Q 649.71 235.25 649.31 235.47 Q 648.87 235.72 648.59 236.11 Q 648.31 236.49 648.31 237.03 Q 648.31 237.63 648.6 238.01 Q 648.88 238.39 649.3 238.61 Q 649.78 238.85 650.24 238.97 Q 650.69 239.1 651.22 239.21 Q 651.63 239.3 652.15 239.45 Q 652.67 239.61 653.07 239.86 Q 653.41 240.07 653.65 240.39 Q 653.88 240.72 653.88 241.16 Z M 660.49 233.04 L 660.07 233.04 L 660.07 235.18 L 657.74 235.18 L 657.74 235.58 L 660.07 235.58 L 660.07 241.21 Q 660.08 241.78 660.26 242.17 Q 660.45 242.55 660.77 242.8 Q 661.09 243.04 661.53 243.14 Q 661.97 243.25 662.5 243.25 Q 662.7 243.25 662.9 243.25 Q 663.1 243.24 663.3 243.22 Q 663.4 243.21 663.5 243.2 Q 663.6 243.18 663.71 243.16 L 663.63 242.79 Q 663.53 242.8 663.43 242.81 Q 663.33 242.82 663.23 242.83 Q 663.04 242.84 662.85 242.85 Q 662.66 242.85 662.46 242.85 Q 662.04 242.85 661.68 242.77 Q 661.33 242.68 661.06 242.48 Q 660.8 242.29 660.65 241.98 Q 660.5 241.67 660.48 241.21 L 660.48 235.58 L 663.34 235.58 L 663.34 235.18 L 660.48 235.18 Z M 667.81 235.18 L 667.81 235.57 L 670.72 235.57 L 670.72 242.71 L 667.81 242.71 L 667.81 243.1 L 673.93 243.1 L 673.93 242.71 L 671.11 242.71 L 671.11 235.18 Z M 670.38 232.93 Q 670.38 233.12 670.49 233.28 Q 670.59 233.44 670.89 233.44 Q 671.19 233.44 671.3 233.28 Q 671.41 233.12 671.41 232.92 Q 671.41 232.82 671.39 232.72 Q 671.36 232.62 671.3 232.54 Q 671.24 232.47 671.14 232.42 Q 671.04 232.38 670.89 232.38 Q 670.74 232.38 670.64 232.42 Q 670.55 232.47 670.48 232.54 Q 670.43 232.62 670.4 232.72 Q 670.38 232.82 670.38 232.93 Z M 674.91 238.99 L 674.91 239.3 Q 674.91 240.06 675.15 240.78 Q 675.38 241.49 675.83 242.04 Q 676.27 242.59 676.91 242.92 Q 677.56 243.25 678.39 243.25 Q 679.21 243.25 679.85 242.92 Q 680.49 242.58 680.93 242.03 Q 681.37 241.49 681.6 240.77 Q 681.83 240.06 681.84 239.3 L 681.84 238.99 Q 681.83 238.22 681.6 237.5 Q 681.37 236.79 680.93 236.24 Q 680.48 235.69 679.84 235.36 Q 679.2 235.03 678.37 235.03 Q 677.54 235.03 676.9 235.37 Q 676.26 235.7 675.82 236.25 Q 675.38 236.8 675.15 237.51 Q 674.91 238.23 674.91 238.99 Z M 675.3 239.3 L 675.3 238.99 Q 675.31 238.32 675.52 237.68 Q 675.73 237.04 676.12 236.54 Q 676.51 236.04 677.08 235.74 Q 677.65 235.43 678.37 235.43 Q 679.1 235.43 679.67 235.74 Q 680.24 236.04 680.63 236.54 Q 681.02 237.04 681.23 237.68 Q 681.44 238.32 681.45 238.99 L 681.45 239.3 Q 681.44 239.97 681.23 240.61 Q 681.03 241.24 680.64 241.74 Q 680.25 242.25 679.68 242.55 Q 679.12 242.85 678.39 242.85 Q 677.65 242.85 677.08 242.55 Q 676.51 242.25 676.12 241.75 Q 675.73 241.25 675.52 240.61 Q 675.31 239.97 675.3 239.3 Z M 685.19 243.1 L 685.59 243.1 L 685.59 237.96 Q 685.7 237.45 685.98 236.99 Q 686.25 236.53 686.63 236.18 Q 687.02 235.84 687.51 235.63 Q 687.99 235.43 688.52 235.42 Q 689.12 235.41 689.55 235.6 Q 689.97 235.79 690.25 236.13 Q 690.52 236.48 690.64 236.95 Q 690.77 237.42 690.78 237.98 L 690.78 243.1 L 691.18 243.1 L 691.18 237.98 Q 691.18 237.34 691.02 236.8 Q 690.86 236.26 690.54 235.86 Q 690.22 235.47 689.72 235.25 Q 689.23 235.03 688.55 235.03 Q 688.03 235.03 687.57 235.19 Q 687.12 235.35 686.74 235.62 Q 686.36 235.89 686.07 236.27 Q 685.78 236.64 685.59 237.08 L 685.59 235.18 L 685.19 235.18 Z M 698.8 241.16 Q 698.8 241.54 698.63 241.82 Q 698.45 242.1 698.15 242.31 Q 697.71 242.6 697.19 242.73 Q 696.67 242.85 696.17 242.85 Q 695.72 242.85 695.25 242.77 Q 694.77 242.69 694.37 242.49 Q 693.97 242.29 693.69 241.95 Q 693.41 241.61 693.35 241.09 L 692.95 241.09 Q 692.99 241.68 693.28 242.09 Q 693.58 242.5 694.04 242.75 Q 694.49 243 695.06 243.13 Q 695.63 243.25 696.17 243.25 Q 696.71 243.25 697.32 243.11 Q 697.93 242.97 698.41 242.64 Q 698.73 242.41 698.96 242.04 Q 699.19 241.67 699.19 241.17 Q 699.19 240.58 698.91 240.18 Q 698.64 239.79 698.2 239.53 Q 697.76 239.27 697.25 239.12 Q 696.73 238.97 696.26 238.86 Q 695.88 238.78 695.38 238.66 Q 694.89 238.53 694.48 238.31 Q 694.09 238.12 693.86 237.79 Q 693.63 237.47 693.63 237.02 Q 693.63 236.56 693.88 236.25 Q 694.13 235.95 694.51 235.77 Q 694.88 235.58 695.31 235.51 Q 695.74 235.43 696.1 235.43 Q 696.53 235.43 697 235.53 Q 697.46 235.63 697.86 235.85 Q 698.25 236.08 698.5 236.44 Q 698.76 236.79 698.78 237.3 L 699.19 237.3 Q 699.14 236.68 698.86 236.25 Q 698.59 235.82 698.16 235.55 Q 697.73 235.28 697.19 235.16 Q 696.66 235.03 696.1 235.03 Q 695.65 235.03 695.14 235.14 Q 694.63 235.25 694.23 235.47 Q 693.79 235.72 693.51 236.11 Q 693.23 236.49 693.23 237.03 Q 693.23 237.63 693.52 238.01 Q 693.8 238.39 694.22 238.61 Q 694.7 238.85 695.16 238.97 Q 695.61 239.1 696.14 239.21 Q 696.55 239.3 697.07 239.45 Q 697.59 239.61 697.99 239.86 Q 698.34 240.07 698.57 240.39 Q 698.8 240.72 698.8 241.16 Z" transform="matrix(1, 0, 0, 1, -350.556, -112.211327)" style="fill: rgb(102, 102, 102);"/>
    <path transform="matrix(1, 0, 0, 1, -350.556, -112.211327)" style="fill: rgb(102, 102, 102);"/>
    <path d="M 628.38 255.1 L 628.84 255.1 L 628.84 255.04 Q 628.76 254.64 628.7 254.28 Q 628.63 253.91 628.62 253.51 L 628.62 249.54 Q 628.61 248.92 628.38 248.44 Q 628.15 247.97 627.75 247.66 Q 627.36 247.35 626.83 247.19 Q 626.31 247.03 625.72 247.03 Q 625.2 247.03 624.68 247.18 Q 624.16 247.33 623.73 247.61 Q 623.3 247.9 623.02 248.34 Q 622.74 248.77 622.71 249.35 L 623.1 249.36 Q 623.12 248.86 623.37 248.5 Q 623.62 248.14 624 247.9 Q 624.37 247.66 624.83 247.55 Q 625.28 247.43 625.72 247.43 Q 626.22 247.43 626.67 247.56 Q 627.12 247.68 627.47 247.94 Q 627.8 248.2 628.01 248.59 Q 628.21 248.99 628.23 249.52 L 628.23 250.68 L 626.27 250.68 Q 625.61 250.69 624.94 250.8 Q 624.27 250.91 623.72 251.18 Q 623.18 251.46 622.83 251.92 Q 622.49 252.39 622.49 253.1 Q 622.49 253.62 622.7 254.02 Q 622.91 254.42 623.26 254.69 Q 623.61 254.96 624.07 255.11 Q 624.52 255.25 625 255.25 Q 625.49 255.25 625.96 255.15 Q 626.43 255.05 626.84 254.84 Q 627.26 254.64 627.62 254.33 Q 627.97 254.03 628.23 253.62 Q 628.24 254 628.27 254.36 Q 628.29 254.73 628.38 255.1 Z M 625 254.86 Q 624.63 254.86 624.25 254.75 Q 623.87 254.64 623.57 254.42 Q 623.26 254.2 623.07 253.87 Q 622.88 253.54 622.88 253.13 Q 622.87 252.55 623.15 252.17 Q 623.43 251.79 623.89 251.55 Q 624.4 251.27 625.05 251.19 Q 625.7 251.1 626.3 251.08 L 628.23 251.08 L 628.23 252.96 Q 628.01 253.43 627.67 253.79 Q 627.34 254.14 626.92 254.39 Q 626.49 254.63 626.01 254.75 Q 625.52 254.87 625 254.86 Z M 633.15 245.04 L 632.72 245.04 L 632.72 247.18 L 630.39 247.18 L 630.39 247.58 L 632.72 247.58 L 632.72 253.21 Q 632.74 253.78 632.92 254.17 Q 633.1 254.55 633.43 254.8 Q 633.75 255.04 634.19 255.14 Q 634.63 255.25 635.16 255.25 Q 635.36 255.25 635.56 255.25 Q 635.76 255.24 635.95 255.22 Q 636.06 255.21 636.16 255.2 Q 636.26 255.18 636.36 255.16 L 636.28 254.79 Q 636.19 254.8 636.09 254.81 Q 635.98 254.82 635.89 254.83 Q 635.7 254.84 635.51 254.85 Q 635.32 254.85 635.12 254.85 Q 634.69 254.85 634.34 254.77 Q 633.98 254.68 633.72 254.48 Q 633.46 254.29 633.31 253.98 Q 633.16 253.67 633.14 253.21 L 633.14 247.58 L 636 247.58 L 636 247.18 L 633.14 247.18 Z M 642.91 245.04 L 642.49 245.04 L 642.49 247.18 L 640.16 247.18 L 640.16 247.58 L 642.49 247.58 L 642.49 253.21 Q 642.5 253.78 642.69 254.17 Q 642.87 254.55 643.19 254.8 Q 643.51 255.04 643.95 255.14 Q 644.39 255.25 644.92 255.25 Q 645.13 255.25 645.32 255.25 Q 645.52 255.24 645.72 255.22 Q 645.82 255.21 645.92 255.2 Q 646.03 255.18 646.13 255.16 L 646.05 254.79 Q 645.95 254.8 645.85 254.81 Q 645.75 254.82 645.65 254.83 Q 645.46 254.84 645.27 254.85 Q 645.08 254.85 644.88 254.85 Q 644.46 254.85 644.1 254.77 Q 643.75 254.68 643.49 254.48 Q 643.22 254.29 643.07 253.98 Q 642.92 253.67 642.91 253.21 L 642.91 247.58 L 645.76 247.58 L 645.76 247.18 L 642.91 247.18 Z M 651.35 255.25 Q 652.17 255.25 652.88 254.94 Q 653.58 254.63 654.09 253.97 L 653.8 253.77 Q 653.33 254.34 652.71 254.61 Q 652.09 254.87 651.35 254.86 Q 650.62 254.85 650.03 254.56 Q 649.44 254.26 649.03 253.76 Q 648.6 253.27 648.37 252.63 Q 648.13 251.99 648.13 251.31 L 648.13 250.88 L 654.33 250.88 L 654.33 250.42 Q 654.32 249.74 654.1 249.12 Q 653.88 248.5 653.48 248.04 Q 653.07 247.57 652.49 247.3 Q 651.91 247.03 651.2 247.03 Q 650.39 247.03 649.75 247.37 Q 649.12 247.71 648.67 248.27 Q 648.22 248.83 647.98 249.54 Q 647.74 250.25 647.73 250.99 L 647.73 251.31 Q 647.74 252.08 648 252.79 Q 648.27 253.5 648.74 254.05 Q 649.21 254.6 649.87 254.92 Q 650.54 255.25 651.35 255.25 Z M 651.2 247.43 Q 651.8 247.43 652.31 247.67 Q 652.81 247.91 653.17 248.32 Q 653.53 248.73 653.73 249.27 Q 653.93 249.8 653.93 250.39 L 653.93 250.48 L 648.16 250.48 Q 648.24 249.89 648.47 249.34 Q 648.71 248.78 649.1 248.36 Q 649.48 247.93 650.01 247.68 Q 650.54 247.43 651.2 247.43 Z M 657.28 247.18 L 656.93 247.18 L 656.93 255.1 L 657.28 255.1 L 657.3 249.33 Q 657.37 249.01 657.48 248.67 Q 657.58 248.34 657.79 248.06 Q 657.99 247.79 658.32 247.61 Q 658.65 247.44 659.16 247.42 Q 659.64 247.41 659.92 247.58 Q 660.2 247.74 660.35 247.99 Q 660.5 248.25 660.54 248.55 Q 660.59 248.84 660.59 249.1 L 660.61 255.1 L 660.97 255.1 L 660.98 249.1 Q 660.98 249.07 660.98 249.04 Q 660.98 249.02 660.98 248.98 Q 661.06 248.72 661.18 248.45 Q 661.3 248.18 661.51 247.96 Q 661.72 247.73 662.05 247.58 Q 662.37 247.44 662.86 247.42 Q 663.35 247.41 663.63 247.59 Q 663.92 247.78 664.07 248.06 Q 664.21 248.34 664.25 248.67 Q 664.29 248.99 664.29 249.24 L 664.31 255.1 L 664.67 255.1 L 664.68 249.24 Q 664.68 248.92 664.62 248.53 Q 664.56 248.15 664.37 247.82 Q 664.21 247.48 663.84 247.26 Q 663.47 247.03 662.87 247.03 Q 662.49 247.03 662.18 247.14 Q 661.86 247.24 661.61 247.41 Q 661.36 247.57 661.17 247.79 Q 660.99 248.01 660.87 248.26 Q 660.81 248.01 660.68 247.79 Q 660.56 247.57 660.35 247.4 Q 660.15 247.23 659.86 247.13 Q 659.57 247.03 659.17 247.03 Q 658.43 247.05 657.98 247.38 Q 657.53 247.71 657.3 248.22 Z M 667.67 258.15 L 668.07 258.15 L 668.07 253.95 Q 668.27 254.26 668.57 254.5 Q 668.86 254.75 669.2 254.91 Q 669.53 255.07 669.9 255.16 Q 670.26 255.25 670.62 255.25 Q 671.47 255.25 672.07 254.88 Q 672.66 254.52 673.02 253.95 Q 673.38 253.38 673.56 252.65 Q 673.74 251.92 673.74 251.21 L 673.74 251.06 Q 673.73 250.28 673.53 249.5 Q 673.33 248.72 672.89 248.12 Q 672.5 247.63 671.95 247.33 Q 671.39 247.03 670.61 247.03 Q 670.23 247.03 669.86 247.14 Q 669.49 247.24 669.16 247.43 Q 668.83 247.62 668.55 247.89 Q 668.27 248.16 668.07 248.5 L 668.07 247.18 L 667.67 247.18 Z M 673.34 251.06 L 673.34 251.21 Q 673.33 251.86 673.18 252.53 Q 673.04 253.21 672.7 253.73 Q 672.38 254.22 671.88 254.54 Q 671.37 254.85 670.63 254.85 Q 670.24 254.85 669.85 254.75 Q 669.45 254.64 669.11 254.44 Q 668.76 254.23 668.49 253.93 Q 668.21 253.62 668.07 253.23 L 668.07 249.32 Q 668.21 248.89 668.46 248.55 Q 668.71 248.2 669.05 247.95 Q 669.39 247.7 669.79 247.56 Q 670.18 247.43 670.62 247.43 Q 671.31 247.43 671.8 247.7 Q 672.29 247.98 672.61 248.41 Q 673 248.97 673.17 249.67 Q 673.34 250.38 673.34 251.06 Z M 678.07 245.04 L 677.65 245.04 L 677.65 247.18 L 675.32 247.18 L 675.32 247.58 L 677.65 247.58 L 677.65 253.21 Q 677.66 253.78 677.84 254.17 Q 678.03 254.55 678.35 254.8 Q 678.67 255.04 679.11 255.14 Q 679.55 255.25 680.08 255.25 Q 680.28 255.25 680.48 255.25 Q 680.68 255.24 680.88 255.22 Q 680.98 255.21 681.08 255.2 Q 681.18 255.18 681.29 255.16 L 681.2 254.79 Q 681.11 254.8 681.01 254.81 Q 680.9 254.82 680.81 254.83 Q 680.62 254.84 680.43 254.85 Q 680.24 254.85 680.04 254.85 Q 679.62 254.85 679.26 254.77 Q 678.91 254.68 678.64 254.48 Q 678.38 254.29 678.23 253.98 Q 678.08 253.67 678.06 253.21 L 678.06 247.58 L 680.92 247.58 L 680.92 247.18 L 678.06 247.18 Z M 688.46 255.25 Q 689.28 255.25 689.99 254.94 Q 690.69 254.63 691.2 253.97 L 690.91 253.77 Q 690.44 254.34 689.82 254.61 Q 689.2 254.87 688.46 254.86 Q 687.73 254.85 687.14 254.56 Q 686.55 254.26 686.14 253.76 Q 685.71 253.27 685.48 252.63 Q 685.24 251.99 685.24 251.31 L 685.24 250.88 L 691.44 250.88 L 691.44 250.42 Q 691.43 249.74 691.21 249.12 Q 690.99 248.5 690.59 248.04 Q 690.18 247.57 689.6 247.3 Q 689.02 247.03 688.3 247.03 Q 687.5 247.03 686.86 247.37 Q 686.22 247.71 685.78 248.27 Q 685.33 248.83 685.09 249.54 Q 684.85 250.25 684.84 250.99 L 684.84 251.31 Q 684.85 252.08 685.11 252.79 Q 685.37 253.5 685.85 254.05 Q 686.32 254.6 686.98 254.92 Q 687.65 255.25 688.46 255.25 Z M 688.3 247.43 Q 688.91 247.43 689.42 247.67 Q 689.92 247.91 690.28 248.32 Q 690.64 248.73 690.84 249.27 Q 691.04 249.8 691.04 250.39 L 691.04 250.48 L 685.27 250.48 Q 685.35 249.89 685.58 249.34 Q 685.82 248.78 686.21 248.36 Q 686.59 247.93 687.12 247.68 Q 687.65 247.43 688.3 247.43 Z M 692.74 251.06 L 692.74 251.21 Q 692.74 251.9 692.91 252.62 Q 693.08 253.33 693.44 253.91 Q 693.81 254.5 694.41 254.87 Q 695 255.25 695.86 255.25 Q 696.57 255.25 697.29 254.91 Q 698 254.57 698.42 253.92 L 698.42 255.1 L 698.81 255.1 L 698.81 243.85 L 698.42 243.85 L 698.42 248.54 Q 698.02 247.85 697.34 247.44 Q 696.65 247.03 695.88 247.03 Q 694.97 247.03 694.37 247.42 Q 693.77 247.8 693.4 248.42 Q 693.07 248.97 692.91 249.68 Q 692.74 250.38 692.74 251.06 Z M 693.15 251.21 L 693.15 251.06 Q 693.15 250.47 693.28 249.83 Q 693.41 249.2 693.71 248.67 Q 694.03 248.12 694.55 247.78 Q 695.07 247.43 695.87 247.43 Q 696.72 247.43 697.43 247.94 Q 698.14 248.46 698.42 249.32 L 698.42 253.24 Q 698.11 254.01 697.37 254.43 Q 696.63 254.85 695.85 254.85 Q 695.06 254.85 694.55 254.5 Q 694.04 254.15 693.71 253.62 Q 693.42 253.08 693.29 252.45 Q 693.15 251.82 693.15 251.21 Z" transform="matrix(1, 0, 0, 1, -350.556, -112.211327)" style="fill: rgb(102, 102, 102);"/>
    <rect x="257.729" y="86.615" width="0.75" height="76.77" style="fill: rgb(102, 102, 102);">
      <title>Separator</title>
    </rect>
  </g>
</svg>
